<mxfile host="app.diagrams.net" modified="2024-03-31T12:54:03.113Z" agent="Mozilla/5.0 (Macintosh; Intel Mac OS X 10_15_7) AppleWebKit/537.36 (KHTML, like Gecko) Chrome/123.0.0.0 Safari/537.36" version="24.2.1" etag="CvZmJJGmCsZrL4JVDLiQ" type="github">
  <diagram name="Trang-1" id="TGetxWyNufhtHLdXPbe6">
    <mxGraphModel>
      <root>
        <mxCell id="0" />
        <mxCell id="1" parent="0" />
      </root>
    </mxGraphModel>
  </diagram>
</mxfile>
